<?xml version="1.0" encoding="utf-8"?>
<!-- Generator: Adobe Illustrator 27.7.0, SVG Export Plug-In . SVG Version: 6.00 Build 0)  -->
<svg version="1.1" id="Layer_1" xmlns="http://www.w3.org/2000/svg" xmlns:xlink="http://www.w3.org/1999/xlink" x="0px" y="0px"
	 viewBox="0 0 50 50" style="enable-background:new 0 0 50 50;" xml:space="preserve">
<style type="text/css">
	.st0{fill:#CEDDFB;}
</style>
<g>
	<g>
		<g>
			<path class="st0" d="M25,19.9c-11.7,0-20.9-4.4-20.9-10C4.1,4.4,13.3,0,25,0c11.7,0,20.9,4.4,20.9,10
				C45.9,15.6,36.7,19.9,25,19.9z M25,2.5c-10.9,0-18.4,4-18.4,7.5c0,3.6,7.6,7.5,18.4,7.5s18.4-4,18.4-7.5
				C43.4,6.4,35.9,2.5,25,2.5z"/>
		</g>
		<g>
			<path class="st0" d="M25,27.5c-11.7,0-20.9-4.4-20.9-10h2.5C6.6,21,14.1,25,25,25s18.4-4,18.4-7.5h2.4
				C45.9,23.1,36.7,27.5,25,27.5z"/>
		</g>
		<g>
			<path class="st0" d="M25,35C13.3,35,4.1,30.6,4.1,25h2.5c0,3.6,7.6,7.5,18.4,7.5s18.4-4,18.4-7.5h2.4C45.9,30.6,36.7,35,25,35z"
				/>
		</g>
		<g>
			<path class="st0" d="M25,42.5c-11.7,0-20.9-4.4-20.9-10h2.5c0,3.6,7.6,7.5,18.4,7.5s18.4-4,18.4-7.5h2.4
				C45.9,38.1,36.7,42.5,25,42.5z"/>
		</g>
		<g>
			<path class="st0" d="M25,50C13.3,50,4.1,45.6,4.1,40V10h2.5v30c0,3.6,7.6,7.5,18.4,7.5s18.4-4,18.4-7.5V10h2.4v30
				C45.9,45.6,36.7,50,25,50z"/>
		</g>
	</g>
	<g>
		<g>
			<g>
				<path class="st0" d="M16.4,13.7c-0.6-0.4-1-0.8-1-1.3c0-0.5,0.2-0.9,0.8-1.4l1.9,0.4c-0.5,0.5-0.6,0.9-0.3,1.4
					c0.3,0.5,1,0.9,2.4,1.1c1.2,0.3,2.4,0.3,3.5,0.1c1.1-0.2,2-0.5,2.6-1c0.5-0.4,0.7-0.8,0.6-1.1c-0.1-0.3-0.3-0.6-0.8-0.8
					c-0.4-0.2-1.1-0.5-1.9-0.9c-1-0.4-1.7-0.8-2.2-1.1c-0.5-0.3-0.8-0.7-0.9-1.1c-0.1-0.4,0.2-0.9,1-1.5c0.6-0.5,1.4-0.8,2.3-1.1
					c0.9-0.3,2-0.4,3.1-0.5c1.1,0,2.3,0,3.4,0.2c1.6,0.3,2.7,0.8,3.2,1.4c0.5,0.6,0.4,1.3-0.3,2l-1.9-0.4c0.4-0.4,0.4-0.8,0.1-1.2
					c-0.3-0.4-1-0.7-2.2-1c-1.1-0.2-2.1-0.2-3.2-0.1c-1.1,0.2-1.9,0.5-2.6,1c-0.5,0.4-0.7,0.7-0.6,1c0.1,0.3,0.4,0.6,0.8,0.8
					c0.4,0.2,1.1,0.5,1.9,0.9c0.9,0.4,1.7,0.8,2.2,1.1c0.5,0.3,0.8,0.7,0.9,1.1c0.1,0.4-0.2,0.9-0.9,1.5c-0.5,0.4-1.3,0.8-2.2,1.1
					c-0.9,0.3-2,0.5-3.1,0.5c-1.2,0-2.3-0.1-3.6-0.3C18,14.4,17.1,14.1,16.4,13.7z"/>
				<path class="st0" d="M22.2,15.3c-1,0-2-0.1-3.1-0.3c-1.2-0.3-2.1-0.6-2.8-1c-0.7-0.4-1.1-1-1.1-1.5c0-0.6,0.2-1.1,0.9-1.6
					l0.1-0.1l2.5,0.5l-0.3,0.3c-0.5,0.5-0.4,0.9-0.3,1.1c0.2,0.3,0.7,0.7,2.2,1c1.2,0.3,2.3,0.3,3.4,0.1c1.1-0.2,1.9-0.5,2.5-1
					c0.3-0.2,0.6-0.6,0.5-0.8c-0.1-0.3-0.3-0.5-0.7-0.7c-0.4-0.2-1.1-0.5-1.9-0.9c-1-0.4-1.7-0.8-2.3-1.1c-0.6-0.3-0.9-0.8-1-1.3
					c-0.1-0.5,0.2-1.1,1-1.7c0.6-0.5,1.4-0.9,2.4-1.1c1-0.3,2-0.4,3.2-0.5c1.1,0,2.3,0,3.4,0.3c1.7,0.3,2.8,0.8,3.3,1.5
					c0.4,0.5,0.7,1.3-0.3,2.3l-0.1,0.1l-2.5-0.5l0.3-0.3c0.3-0.3,0.3-0.6,0-0.9c-0.2-0.3-0.7-0.6-2-0.9c-1-0.2-2.1-0.2-3.1-0.1
					c-1,0.1-1.9,0.5-2.5,0.9c-0.3,0.2-0.6,0.5-0.5,0.8c0.1,0.2,0.3,0.5,0.7,0.7c0.4,0.2,1,0.5,1.9,0.9c1,0.4,1.7,0.8,2.2,1.1
					c0.6,0.3,0.9,0.8,1,1.3c0.1,0.5-0.2,1.1-1,1.8c-0.6,0.5-1.3,0.8-2.3,1.1c-0.9,0.3-2,0.5-3.2,0.5C22.5,15.3,22.3,15.3,22.2,15.3z
					 M16.3,11.2c-0.4,0.4-0.6,0.8-0.6,1.1c0,0.4,0.3,0.8,0.9,1.1l0,0c0.6,0.4,1.5,0.7,2.6,1c1.2,0.3,2.4,0.4,3.5,0.3
					c1.1,0,2.2-0.2,3.1-0.5c0.9-0.3,1.6-0.6,2.1-1.1c0.6-0.5,0.9-0.9,0.8-1.3c-0.1-0.4-0.3-0.7-0.8-1c-0.5-0.3-1.2-0.7-2.2-1
					C25,9.6,24.3,9.3,23.9,9c-0.5-0.3-0.8-0.6-0.9-1c-0.1-0.4,0.1-0.9,0.7-1.3c0.7-0.5,1.6-0.9,2.7-1c1.1-0.2,2.2-0.1,3.3,0.1
					c1.2,0.2,2,0.6,2.4,1.1c0.3,0.4,0.3,0.8,0.2,1.2l1.4,0.3c0.7-0.7,0.4-1.2,0.2-1.5c-0.4-0.6-1.5-1-3-1.3
					c-1.1-0.2-2.2-0.3-3.3-0.2c-1.1,0-2.1,0.2-3,0.5c-0.9,0.3-1.7,0.6-2.2,1.1c-0.6,0.5-0.9,0.9-0.9,1.2C21.3,8.4,21.5,8.7,22,9
					c0.5,0.3,1.2,0.6,2.2,1c0.8,0.4,1.5,0.7,1.9,0.9c0.5,0.3,0.8,0.6,0.9,1c0.1,0.4-0.1,0.9-0.7,1.3c-0.6,0.5-1.6,0.9-2.7,1.1
					c-1.1,0.2-2.3,0.1-3.6-0.1c-1.4-0.3-2.2-0.7-2.5-1.3c-0.2-0.3-0.3-0.8,0.1-1.4L16.3,11.2z"/>
			</g>
		</g>
		<g>
			<polygon class="st0" points="19,15.6 17.2,15.2 30.8,4.4 32.6,4.7 			"/>
		</g>
	</g>
</g>
</svg>
