<?xml version="1.0" encoding="utf-8"?>
<!-- Generator: Adobe Illustrator 26.4.1, SVG Export Plug-In . SVG Version: 6.00 Build 0)  -->
<svg version="1.1" id="Layer_1" xmlns="http://www.w3.org/2000/svg" xmlns:xlink="http://www.w3.org/1999/xlink" x="0px" y="0px"
	 viewBox="0 0 47 47" style="enable-background:new 0 0 47 47;" xml:space="preserve">
<style type="text/css">
	.st0{fill:#FFFFFF;}
	.st1{fill:url(#SVGID_1_);}
	.st2{fill:url(#SVGID_00000013904810292708951050000004941052841439462329_);}
	.st3{fill:url(#SVGID_00000021117215470073614350000006533804209066433431_);}
	.st4{fill:url(#SVGID_00000173157645609729292880000006140915000556618424_);}
	.st5{fill:url(#SVGID_00000093894062111736226670000014376151373316800676_);}
	.st6{fill:url(#SVGID_00000057127266933148973880000011133364139070274471_);}
	.st7{fill:url(#SVGID_00000165938761407155672230000007786498566768771498_);}
	.st8{fill:url(#SVGID_00000005259146023958913710000004759333524409415816_);}
	.st9{fill:url(#SVGID_00000182514589042940501300000018183021959576116150_);}
	.st10{fill:url(#SVGID_00000079480766420867986850000009528505111869968048_);}
	.st11{fill:url(#SVGID_00000053518952921870501270000010473962060776792247_);}
	.st12{fill:url(#SVGID_00000030451667790567448380000017194634768651450756_);}
	.st13{fill:url(#SVGID_00000101084750990906504730000016750185367506445961_);}
	.st14{fill:url(#SVGID_00000176750776998769052300000015483370661097905332_);}
	.st15{fill:url(#SVGID_00000000194564316653313090000007022653022695198084_);}
	.st16{fill:url(#SVGID_00000125603600248820706930000009930889239806476954_);}
	.st17{fill:url(#SVGID_00000001651285824861976770000003242155852824914584_);}
	.st18{fill:url(#SVGID_00000043442559090202309690000010989476849556904628_);}
	.st19{fill:url(#SVGID_00000150088974444365602870000015187719648766812342_);}
	.st20{fill:url(#SVGID_00000124873337678717673900000004932684561221057714_);}
	.st21{fill:none;stroke:#000000;stroke-width:4;stroke-miterlimit:10;}
</style>
<g>
	<g>
		<linearGradient id="SVGID_1_" gradientUnits="userSpaceOnUse" x1="48.1225" y1="5.0426" x2="4.5832" y2="49.9011">
			<stop  offset="0" style="stop-color:#FF73E1"/>
			<stop  offset="1" style="stop-color:#FFD148"/>
		</linearGradient>
		<path class="st1" d="M13.7,47c-3.6,0-6.5-2.9-6.5-6.5s2.9-6.5,6.5-6.5c3.6,0,6.5,2.9,6.5,6.5S17.3,47,13.7,47z M13.7,38
			c-1.4,0-2.5,1.1-2.5,2.5s1.1,2.5,2.5,2.5s2.5-1.1,2.5-2.5S15.1,38,13.7,38z"/>
	</g>
	<g>
		
			<linearGradient id="SVGID_00000004533597947049229390000017640237372595710391_" gradientUnits="userSpaceOnUse" x1="58.8434" y1="15.4482" x2="15.3042" y2="60.3068">
			<stop  offset="0" style="stop-color:#FF73E1"/>
			<stop  offset="1" style="stop-color:#FFD148"/>
		</linearGradient>
		<path style="fill:url(#SVGID_00000004533597947049229390000017640237372595710391_);" d="M34.5,47c-3.6,0-6.5-2.9-6.5-6.5
			s2.9-6.5,6.5-6.5c3.6,0,6.5,2.9,6.5,6.5S38.1,47,34.5,47z M34.5,38c-1.4,0-2.5,1.1-2.5,2.5s1.1,2.5,2.5,2.5s2.5-1.1,2.5-2.5
			S35.9,38,34.5,38z"/>
	</g>
	<g>
		
			<linearGradient id="SVGID_00000093169323204382275130000001157189021110867366_" gradientUnits="userSpaceOnUse" x1="53.952" y1="10.7006" x2="10.4128" y2="55.5592">
			<stop  offset="0" style="stop-color:#FF73E1"/>
			<stop  offset="1" style="stop-color:#FFD148"/>
		</linearGradient>
		
			<rect x="19.2" y="38.6" style="fill:url(#SVGID_00000093169323204382275130000001157189021110867366_);" width="11.4" height="4"/>
	</g>
	<g>
		
			<linearGradient id="SVGID_00000051359449084536912010000013493597283925695384_" gradientUnits="userSpaceOnUse" x1="46.4381" y1="3.4077" x2="2.8989" y2="48.2663">
			<stop  offset="0" style="stop-color:#FF73E1"/>
			<stop  offset="1" style="stop-color:#FFD148"/>
		</linearGradient>
		<path style="fill:url(#SVGID_00000051359449084536912010000013493597283925695384_);" d="M43.6,42.6
			C43.6,42.6,43.6,42.6,43.6,42.6l-3.3,0l0-4l2.7,0v-6.7c0-0.2-0.1-0.4-0.3-0.4l-8.9-4.6l-2.2-11.7l-25.4,0l0,23.2h3.1v4H5.7
			c-1.9,0-3.4-1.5-3.4-3.4l0-27.8l32.8,0l2.5,13l7.2,3.7c1.5,0.8,2.4,2.3,2.4,4v7.2c0,0.9-0.4,1.8-1,2.4
			C45.4,42.3,44.5,42.6,43.6,42.6z"/>
	</g>
	<g>
		
			<linearGradient id="SVGID_00000111163668346574237380000005523926979232013471_" gradientUnits="userSpaceOnUse" x1="48.9849" y1="5.8796" x2="5.4456" y2="50.7382">
			<stop  offset="0" style="stop-color:#FF73E1"/>
			<stop  offset="1" style="stop-color:#FFD148"/>
		</linearGradient>
		<path style="fill:url(#SVGID_00000111163668346574237380000005523926979232013471_);" d="M37.6,28.6h-9.1c-1.6,0-2.9-1.3-3-2.9
			l0-5.3c0-0.8,0.3-1.5,0.9-2.1c0.6-0.6,1.3-0.9,2.1-0.9h5.6v4h-4.6l0,3.3h8.1V28.6z"/>
	</g>
	<g>
		
			<linearGradient id="SVGID_00000071543836345490781570000010350751122839684755_" gradientUnits="userSpaceOnUse" x1="40.453" y1="-2.4013" x2="-3.0862" y2="42.4573">
			<stop  offset="0" style="stop-color:#FF73E1"/>
			<stop  offset="1" style="stop-color:#FFD148"/>
		</linearGradient>
		<path style="fill:url(#SVGID_00000071543836345490781570000010350751122839684755_);" d="M21.1,28.6H10.6c-1.6,0-2.9-1.3-2.9-2.9
			v-5.4c0-1.6,1.3-2.9,2.9-2.9h10.5c1.6,0,2.9,1.3,2.9,2.9v5.4C24.1,27.2,22.8,28.6,21.1,28.6z M11.7,24.6h8.4v-3.3h-8.4V24.6z"/>
	</g>
	<g>
		
			<linearGradient id="SVGID_00000121964070402057038250000009510500340344451256_" gradientUnits="userSpaceOnUse" x1="35.7277" y1="-6.9877" x2="-7.8115" y2="37.8709">
			<stop  offset="0" style="stop-color:#FF73E1"/>
			<stop  offset="1" style="stop-color:#FFD148"/>
		</linearGradient>
		<path style="fill:url(#SVGID_00000121964070402057038250000009510500340344451256_);" d="M38,15.2H3c-1.6,0-3-1.3-3-2.9V5.5
			c0-1.3,0.6-2.4,1.7-3.2c1.1-0.8,2.6-1,3.9-0.6C9.4,3.1,15.3,4.7,21,3.5c3.9-0.8,6.6-1.6,8.7-2.3c1.5-0.5,2.9-0.9,4.2-1.1
			c1.8-0.3,3.7,0.1,5.1,1.3c1.3,1.1,2,2.6,2,4.2v6.7C41,13.9,39.7,15.2,38,15.2z M4,12.3L4,12.3C4,12.3,4,12.3,4,12.3z M4,11.2h33
			V5.6c0-0.6-0.4-0.9-0.6-1.1C36,4.1,35.3,3.9,34.7,4c-1.1,0.2-2.3,0.6-3.8,1c-2.2,0.7-5,1.5-9.1,2.4C15.2,8.8,8.6,7,4.2,5.6
			C4.1,5.5,4,5.6,4,5.6L4,11.2z"/>
	</g>
</g>
</svg>
