<?xml version="1.0" encoding="utf-8"?>
<!-- Generator: Adobe Illustrator 26.4.1, SVG Export Plug-In . SVG Version: 6.00 Build 0)  -->
<svg version="1.1" id="Layer_1" xmlns="http://www.w3.org/2000/svg" xmlns:xlink="http://www.w3.org/1999/xlink" x="0px" y="0px"
	 viewBox="0 0 53.2 49.4" style="enable-background:new 0 0 53.2 49.4;" xml:space="preserve">
<style type="text/css">
	.st0{fill:url(#SVGID_1_);}
	.st1{fill:url(#SVGID_00000035512511271234781200000008512153122736353935_);}
	.st2{fill:url(#SVGID_00000057120430466192883840000011519518833859308951_);}
	.st3{fill:url(#SVGID_00000047764124601132597920000009843622736971728827_);}
	.st4{fill:url(#SVGID_00000071555633284649265290000005402430047802499726_);}
	.st5{fill:url(#SVGID_00000033348129292056557060000011220991868226621314_);}
	.st6{fill:url(#SVGID_00000083782374744168216180000006397129193185120931_);}
	.st7{fill:url(#SVGID_00000137827438529552561870000001648314140415617969_);}
	.st8{fill:url(#SVGID_00000137810880805431731580000013247129119995261070_);}
	.st9{fill:url(#SVGID_00000079476104060957565470000006833332437774535553_);}
	.st10{fill:url(#SVGID_00000098214022649968389020000003605421434291969464_);}
	.st11{fill:url(#SVGID_00000134933078559058560600000000943290301057253268_);}
</style>
<g>
	<g>
		<g>
			
				<linearGradient id="SVGID_1_" gradientUnits="userSpaceOnUse" x1="46.8464" y1="11.7496" x2="0.4869" y2="42.6062" gradientTransform="matrix(0.9936 6.406749e-03 6.406749e-03 0.9936 1.654 -2.2593)">
				<stop  offset="0" style="stop-color:#8F8CFD"/>
				<stop  offset="0.5" style="stop-color:#80FCFF"/>
				<stop  offset="1" style="stop-color:#F3FAFF"/>
			</linearGradient>
			<path class="st0" d="M23,24.3c-0.5-1.2-0.6-2.4-0.4-3.5c0.2-1.1,0.7-2.2,1.6-3l2.7,2.7C26.3,21.3,26,22.1,26,23
				c0,0.9,0.5,1.8,1.3,2.6c0.9,0.9,1.8,1.4,2.7,1.4c0.9,0.1,1.7-0.2,2.4-0.9c0.5-0.5,0.8-1.1,0.8-1.7c0-0.6-0.1-1.3-0.4-1.9
				c-0.3-0.6-0.7-1.5-1.3-2.5c-0.7-1.3-1.3-2.4-1.7-3.3c-0.4-0.9-0.5-1.9-0.4-2.9c0.1-1,0.7-2,1.6-3c0.9-0.9,1.9-1.4,3-1.6
				c1.1-0.2,2.2-0.1,3.4,0.4c1.2,0.5,2.3,1.2,3.3,2.3c1.5,1.5,2.4,3.1,2.6,4.8c0.2,1.7-0.3,3.3-1.5,4.7l-2.8-2.8
				c0.5-0.6,0.7-1.4,0.6-2.2s-0.5-1.7-1.4-2.5c-0.7-0.7-1.5-1.1-2.3-1.2c-0.8-0.1-1.6,0.2-2.3,0.9c-0.5,0.5-0.7,1-0.7,1.6
				c0,0.6,0.1,1.2,0.4,1.8c0.3,0.6,0.7,1.4,1.3,2.4c0.7,1.3,1.3,2.4,1.7,3.4c0.4,0.9,0.5,1.9,0.4,2.9c-0.1,1-0.7,2-1.6,3
				c-0.8,0.8-1.7,1.3-2.8,1.6c-1.1,0.3-2.3,0.2-3.5-0.2c-1.2-0.4-2.4-1.1-3.5-2.2C24.2,26.7,23.5,25.5,23,24.3z"/>
		</g>
		<g>
			
				<linearGradient id="SVGID_00000061445136499784936870000003356560410726026649_" gradientUnits="userSpaceOnUse" x1="45.6153" y1="9.9" x2="-0.7442" y2="40.7566" gradientTransform="matrix(0.9936 6.406749e-03 6.406749e-03 0.9936 1.654 -2.2593)">
				<stop  offset="0" style="stop-color:#8F8CFD"/>
				<stop  offset="0.5" style="stop-color:#80FCFF"/>
				<stop  offset="1" style="stop-color:#F3FAFF"/>
			</linearGradient>
			<polygon style="fill:url(#SVGID_00000061445136499784936870000003356560410726026649_);" points="40.5,15.1 37.7,12.3 41.3,8.7 
				44.1,11.5 			"/>
		</g>
		<g>
			
				<linearGradient id="SVGID_00000091708104029750043630000016150514953019309738_" gradientUnits="userSpaceOnUse" x1="48.1992" y1="13.7821" x2="1.8397" y2="44.6387" gradientTransform="matrix(0.9936 6.406749e-03 6.406749e-03 0.9936 1.654 -2.2593)">
				<stop  offset="0" style="stop-color:#8F8CFD"/>
				<stop  offset="0.5" style="stop-color:#80FCFF"/>
				<stop  offset="1" style="stop-color:#F3FAFF"/>
			</linearGradient>
			<polygon style="fill:url(#SVGID_00000091708104029750043630000016150514953019309738_);" points="24.5,31.2 21.7,28.4 24.3,25.8 
				27.1,28.6 			"/>
		</g>
	</g>
	<g>
		
			<linearGradient id="SVGID_00000183211893199004950100000008924155656944955034_" gradientUnits="userSpaceOnUse" x1="47.1167" y1="12.2084" x2="0.7573" y2="43.065" gradientTransform="matrix(0.7071 -0.7071 0.7071 0.7071 -5.1671 26.7035)">
			<stop  offset="0" style="stop-color:#8F8CFD"/>
			<stop  offset="0.5" style="stop-color:#80FCFF"/>
			<stop  offset="1" style="stop-color:#F3FAFF"/>
		</linearGradient>
		<path style="fill:url(#SVGID_00000183211893199004950100000008924155656944955034_);" d="M47.3,34.3c-7.8,7.8-20.5,7.8-28.3,0
			S11.2,13.8,19,6c7.8-7.8,20.5-7.8,28.3,0S55.1,26.5,47.3,34.3z M21.8,8.8c-6.3,6.3-6.3,16.4,0,22.7c6.3,6.3,16.4,6.3,22.7,0
			s6.3-16.4,0-22.7C38.2,2.6,28.1,2.6,21.8,8.8z"/>
	</g>
	
		<linearGradient id="SVGID_00000084488030706843284330000007589750347905020298_" gradientUnits="userSpaceOnUse" x1="53.0749" y1="21.16" x2="6.7154" y2="52.0166" gradientTransform="matrix(0.7071 -0.7071 0.7071 0.7071 -5.1671 26.7035)">
		<stop  offset="0" style="stop-color:#8F8CFD"/>
		<stop  offset="0.5" style="stop-color:#80FCFF"/>
		<stop  offset="1" style="stop-color:#F3FAFF"/>
	</linearGradient>
	<polygon style="fill:url(#SVGID_00000084488030706843284330000007589750347905020298_);" points="47.3,34.3 32.2,49.4 37.5,38.1 	
		"/>
	
		<linearGradient id="SVGID_00000170238795538665472370000007476183088509962657_" gradientUnits="userSpaceOnUse" x1="47.567" y1="12.8849" x2="1.2075" y2="43.7415" gradientTransform="matrix(0.7071 -0.7071 0.7071 0.7071 -5.1671 26.7035)">
		<stop  offset="0" style="stop-color:#8F8CFD"/>
		<stop  offset="0.5" style="stop-color:#80FCFF"/>
		<stop  offset="1" style="stop-color:#F3FAFF"/>
	</linearGradient>
	<polygon style="fill:url(#SVGID_00000170238795538665472370000007476183088509962657_);" points="33.3,39.7 25.5,46.6 27.7,39.4 	
		"/>
	
		<linearGradient id="SVGID_00000022532040813765490980000001415937866541265084_" gradientUnits="userSpaceOnUse" x1="33.7583" y1="-7.8616" x2="-12.6012" y2="22.995" gradientTransform="matrix(0.7071 -0.7071 0.7071 0.7071 -5.1671 26.7035)">
		<stop  offset="0" style="stop-color:#8F8CFD"/>
		<stop  offset="0.5" style="stop-color:#80FCFF"/>
		<stop  offset="1" style="stop-color:#F3FAFF"/>
	</linearGradient>
	<polygon style="fill:url(#SVGID_00000022532040813765490980000001415937866541265084_);" points="19,6 0,25 16.1,15.6 	"/>
	
		<linearGradient id="SVGID_00000052790372400745198110000016297107201141766588_" gradientUnits="userSpaceOnUse" x1="50.5632" y1="17.3865" x2="4.2038" y2="48.2431" gradientTransform="matrix(0.7071 -0.7071 0.7071 0.7071 -5.1671 26.7035)">
		<stop  offset="0" style="stop-color:#8F8CFD"/>
		<stop  offset="0.5" style="stop-color:#80FCFF"/>
		<stop  offset="1" style="stop-color:#F3FAFF"/>
	</linearGradient>
	<path style="fill:url(#SVGID_00000052790372400745198110000016297107201141766588_);" d="M35.1,43.2c0,0,1.8-3.2-0.6-3l-0.8,0
		c0,0-0.9-0.1-1.5,0.4c-0.6,0.5,0.2-1.5,0.2-1.5l6.5,0.6L35.1,43.2z"/>
	
		<linearGradient id="SVGID_00000039856845183626124660000001776016552698759839_" gradientUnits="userSpaceOnUse" x1="46.1739" y1="10.7918" x2="-0.1856" y2="41.6485" gradientTransform="matrix(0.7071 -0.7071 0.7071 0.7071 -5.1671 26.7035)">
		<stop  offset="0" style="stop-color:#8F8CFD"/>
		<stop  offset="0.5" style="stop-color:#80FCFF"/>
		<stop  offset="1" style="stop-color:#F3FAFF"/>
	</linearGradient>
	<path style="fill:url(#SVGID_00000039856845183626124660000001776016552698759839_);" d="M27.4,40.2c0,0,0.3-0.7-0.7-1.1
		s2.1-0.5,2.1-0.5l-0.7,1.6L27.4,40.2z"/>
	
		<linearGradient id="SVGID_00000090295904816781166280000015758088690653295543_" gradientUnits="userSpaceOnUse" x1="35.8592" y1="-4.7052" x2="-10.5003" y2="26.1515" gradientTransform="matrix(0.7071 -0.7071 0.7071 0.7071 -5.1671 26.7035)">
		<stop  offset="0" style="stop-color:#8F8CFD"/>
		<stop  offset="0.5" style="stop-color:#80FCFF"/>
		<stop  offset="1" style="stop-color:#F3FAFF"/>
	</linearGradient>
	<path style="fill:url(#SVGID_00000090295904816781166280000015758088690653295543_);" d="M11.7,18.1c0,0,1.5-1.1,1.5,0.6
		c-0.1,1.6,1.1-2.1,1.1-2.1l-1.2-1.2L11.7,18.1z"/>
</g>
</svg>
