<?xml version="1.0" encoding="utf-8"?>
<!-- Generator: Adobe Illustrator 27.7.0, SVG Export Plug-In . SVG Version: 6.00 Build 0)  -->
<svg version="1.1" id="Layer_1" xmlns="http://www.w3.org/2000/svg" xmlns:xlink="http://www.w3.org/1999/xlink" x="0px" y="0px"
	 viewBox="0 0 50 50" style="enable-background:new 0 0 50 50;" xml:space="preserve">
<style type="text/css">
	.st0{fill:#CEDDFB;}
</style>
<g>
	<g>
		<path class="st0" d="M25.9,0.7l-0.5-0.5C25.3,0.1,25.2,0,25,0c-0.2,0-0.3,0.1-0.4,0.2l-0.5,0.5C23.4,1.4,6.8,19.3,6.8,31.6
			C6.8,41.8,15,50,25,50c10,0,18.2-8.2,18.2-18.4C43.2,18.9,26.6,1.4,25.9,0.7z M25,47.5c-8.7,0-15.7-7.1-15.7-15.9
			c0-9.5,11.4-23.3,15.3-27.8c0.2-0.2,0.6-0.2,0.8,0c3.9,4.4,15.3,18.1,15.3,27.8C40.7,40.4,33.6,47.5,25,47.5z"/>
	</g>
	<path class="st0" d="M25.7,41.7h-1.5c-0.3,0-0.5-0.2-0.5-0.5V16.9c0-0.3,0.2-0.5,0.5-0.5h1.5c0.3,0,0.5,0.2,0.5,0.5v24.2
		C26.2,41.4,26,41.7,25.7,41.7z"/>
	<g>
		<path class="st0" d="M20.1,37.6c-1.3-0.9-2-2.2-2.3-3.8c0-0.2,0.2-0.5,0.4-0.5h1.7c0.2,0,0.4,0.2,0.5,0.4c0.2,0.9,0.7,1.7,1.5,2.3
			c0.9,0.7,2.1,1,3.7,1c1.3,0,2.4-0.3,3.2-1c0.8-0.6,1.2-1.4,1.2-2.4c0-0.7-0.2-1.2-0.6-1.6c-0.4-0.4-1-0.8-1.6-1
			c-0.6-0.3-1.5-0.5-2.6-0.8c-1.4-0.4-2.6-0.8-3.5-1.1c-0.9-0.4-1.7-1-2.3-1.7c-0.6-0.8-0.9-1.8-0.9-3c0-1,0.3-1.8,0.9-2.7
			c0.6-0.8,1.4-1.5,2.4-1.9c1-0.5,2.2-0.7,3.5-0.7c2.1,0,3.8,0.5,5,1.6c1.2,1,1.8,2.3,2,3.9c0,0.2-0.2,0.5-0.4,0.5l-1.6,0
			c-0.3,0-0.5-0.2-0.5-0.5c-0.1-0.9-0.6-1.7-1.3-2.3c-0.8-0.7-1.9-1.1-3.3-1.1c-1.3,0-2.3,0.3-3,0.9c-0.8,0.6-1.2,1.3-1.2,2.2
			c0,0.8,0.2,1.4,0.7,1.9c0.5,0.5,1,0.9,1.7,1.1c0.7,0.3,1.6,0.6,2.8,0.9c1.4,0.4,2.5,0.8,3.3,1.1s1.5,0.9,2.1,1.6
			c0.6,0.7,0.9,1.6,0.9,2.8c0,1.1-0.3,2-0.9,2.8c-0.6,0.8-1.4,1.5-2.4,2c-1,0.5-2.2,0.7-3.5,0.7C23.3,39.1,21.5,38.6,20.1,37.6z"/>
	</g>
</g>
</svg>
