<?xml version="1.0" encoding="utf-8"?>
<!-- Generator: Adobe Illustrator 27.7.0, SVG Export Plug-In . SVG Version: 6.00 Build 0)  -->
<svg version="1.1" id="Layer_1" xmlns="http://www.w3.org/2000/svg" xmlns:xlink="http://www.w3.org/1999/xlink" x="0px" y="0px"
	 viewBox="0 0 50 50" style="enable-background:new 0 0 50 50;" xml:space="preserve">
<style type="text/css">
	.st0{fill:#CEDDFB;}
</style>
<g>
	<g>
		<rect x="27.4" y="15.9" class="st0" width="2.3" height="21.6"/>
	</g>
	<g>
		<rect x="20.2" y="15.9" class="st0" width="2.3" height="21.6"/>
	</g>
	<g>
		<rect x="13.1" y="15.9" class="st0" width="2.3" height="21.6"/>
	</g>
	<g>
		<rect x="34.5" y="15.9" class="st0" width="2.3" height="21.6"/>
	</g>
	<g>
		<rect x="5.9" y="15.9" class="st0" width="2.3" height="21.6"/>
	</g>
	<g>
		<rect x="41.6" y="15.9" class="st0" width="2.3" height="21.6"/>
	</g>
	<g>
		<path class="st0" d="M47.2,44.5H2.8v-7.2c0-0.4,0.3-0.8,0.7-0.8h43.1c0.4,0,0.7,0.3,0.7,0.8V44.5z M5,42H45v-2.5
			c0-0.3-0.2-0.5-0.4-0.5H5.4c-0.2,0-0.4,0.2-0.4,0.5V42z"/>
	</g>
	<g>
		<path class="st0" d="M50,50H0v-7.2C0,42.3,0.3,42,0.7,42h48.6c0.4,0,0.7,0.3,0.7,0.8V50z M2.2,47.5h45.6V45c0-0.3-0.2-0.5-0.4-0.5
			H2.6c-0.2,0-0.4,0.2-0.4,0.5V47.5z"/>
	</g>
	<g>
		<path class="st0" d="M47.4,16.2H2.6c-0.5,0-0.7-0.8-0.3-1.1l22.1-15c0.4-0.2,0.8-0.2,1.2,0l22.1,15C48.1,15.5,47.9,16.2,47.4,16.2
			z M8.7,13.8h32.5L25.6,3.1c-0.4-0.2-0.8-0.2-1.2,0L8.7,13.8z"/>
	</g>
</g>
</svg>
