<?xml version="1.0" encoding="utf-8"?>
<!-- Generator: Adobe Illustrator 27.7.0, SVG Export Plug-In . SVG Version: 6.00 Build 0)  -->
<svg version="1.1" id="Layer_1" xmlns="http://www.w3.org/2000/svg" xmlns:xlink="http://www.w3.org/1999/xlink" x="0px" y="0px"
	 viewBox="0 0 50 50" style="enable-background:new 0 0 50 50;" xml:space="preserve">
<style type="text/css">
	.st0{fill:#CEDDFB;}
</style>
<g>
	<path class="st0" d="M48.8,50H0.6C0.3,50,0,49.7,0,49.4v-1.2c0-0.3,0.3-0.6,0.6-0.6h48.2V50z"/>
	<path class="st0" d="M47.6,50V0.6c0-0.3,0.3-0.6,0.6-0.6h1.3C49.7,0,50,0.3,50,0.6v48.8c0,0.3-0.3,0.6-0.6,0.6H47.6z"/>
	<g>
		<path class="st0" d="M2.4,43v1.9c0,0.4-0.3,0.7-0.7,0.7H0.7c-0.4,0-0.7-0.3-0.7-0.7V43c0-0.4,0.3-0.7,0.7-0.7h1.1
			C2.1,42.3,2.4,42.7,2.4,43z"/>
	</g>
	<g>
		<path class="st0" d="M10.4,37.5v7.4c0,0.4-0.3,0.7-0.7,0.7H8.6c-0.4,0-0.7-0.3-0.7-0.7v-7.4c0-0.4,0.3-0.7,0.7-0.7h1.1
			C10.1,36.9,10.4,37.2,10.4,37.5z"/>
	</g>
	<g>
		<path class="st0" d="M18.3,31.1v13.8c0,0.4-0.3,0.7-0.7,0.7h-1.1c-0.4,0-0.7-0.3-0.7-0.7V31.1c0-0.4,0.3-0.7,0.7-0.7h1.1
			C18,30.4,18.3,30.7,18.3,31.1z"/>
	</g>
	<g>
		<path class="st0" d="M26.2,24.6v20.3c0,0.4-0.3,0.7-0.7,0.7h-1.1c-0.4,0-0.7-0.3-0.7-0.7V24.6c0-0.4,0.3-0.7,0.7-0.7h1.1
			C25.9,24,26.2,24.3,26.2,24.6z"/>
	</g>
	<g>
		<path class="st0" d="M34.1,18.2v26.8c0,0.4-0.3,0.7-0.7,0.7h-1.1c-0.4,0-0.7-0.3-0.7-0.7V18.2c0-0.4,0.3-0.7,0.7-0.7h1.1
			C33.8,17.5,34.1,17.8,34.1,18.2z"/>
	</g>
	<g>
		<path class="st0" d="M42.1,11.7v33.2c0,0.4-0.3,0.7-0.7,0.7h-1.1c-0.4,0-0.7-0.3-0.7-0.7V11.7c0-0.4,0.3-0.7,0.7-0.7h1.1
			C41.8,11,42.1,11.3,42.1,11.7z"/>
	</g>
	<g>
		<g>
			<path class="st0" d="M40.8,8.3l-4.1-5c-0.3-0.4-0.1-1,0.4-1.1l6.4-1c0.5-0.1,0.9,0.4,0.7,0.9L42,8.1C41.8,8.6,41.2,8.7,40.8,8.3z
				 M40.6,4.1l0.2,0.2L40.9,4L40.6,4.1z"/>
		</g>
		<g>
			<g>
				<path class="st0" d="M0.9,37.4l-0.8-1c-0.2-0.3-0.2-0.6,0.1-0.8L38,4.8l1.5,1.9L1.8,37.5C1.5,37.7,1.1,37.6,0.9,37.4z"/>
			</g>
			
				<rect x="39.6" y="2.5" transform="matrix(0.9997 -2.359540e-02 2.359540e-02 0.9997 -8.423156e-02 0.9638)" class="st0" width="2.4" height="3.1"/>
		</g>
	</g>
	<path class="st0" d="M47,47.6c0,0,0.5,0,0.5-0.7s0.6,0.6,0.6,0.6l-0.4,0.8L46.7,48L47,47.6z"/>
</g>
</svg>
