<?xml version="1.0" encoding="utf-8"?>
<!-- Generator: Adobe Illustrator 26.4.1, SVG Export Plug-In . SVG Version: 6.00 Build 0)  -->
<svg version="1.1" id="Layer_1" xmlns="http://www.w3.org/2000/svg" xmlns:xlink="http://www.w3.org/1999/xlink" x="0px" y="0px"
	 viewBox="0 0 47 47" style="enable-background:new 0 0 47 47;" xml:space="preserve">
<style type="text/css">
	.st0{fill:url(#SVGID_1_);}
	.st1{fill:url(#SVGID_00000115511198236065128040000009467887001403979412_);}
	.st2{fill:url(#SVGID_00000177464203546942142220000005665394758171109053_);}
	.st3{fill:url(#SVGID_00000098179899943326264530000011205207423762153384_);}
	.st4{fill:url(#SVGID_00000003073394180405910510000016491340176532013202_);}
	.st5{fill:url(#SVGID_00000019651325120887555060000008437081346177248904_);}
	.st6{fill:url(#SVGID_00000181072070356433881830000002192068948492831403_);}
</style>
<g>
	<g>
		
			<linearGradient id="SVGID_1_" gradientUnits="userSpaceOnUse" x1="48.4355" y1="43.2404" x2="4.5029" y2="-2.0233" gradientTransform="matrix(1 0 0 -1 0 48)">
			<stop  offset="0" style="stop-color:#E4F3F3"/>
			<stop  offset="1" style="stop-color:#00F95C"/>
		</linearGradient>
		<path class="st0" d="M13.7,47c-1.8,0-3.4-0.6-4.6-1.8c-1.2-1.2-1.9-2.8-1.9-4.6s0.8-3.3,2-4.5c1.2-1.2,2.7-1.9,4.5-1.9
			s3.5,0.5,4.7,1.7c1.2,1.2,1.7,2.9,1.7,4.7s-0.7,3.4-1.8,4.5C17,46.3,15.5,47,13.7,47z M13.7,38c-1.4,0-2.5,1.2-2.5,2.6
			s1.1,2.5,2.5,2.5s2.6-1.1,2.6-2.5S15.1,38,13.7,38z"/>
	</g>
	<g>
		
			<linearGradient id="SVGID_00000036962275953497757050000004518362556134867623_" gradientUnits="userSpaceOnUse" x1="58.7997" y1="32.5898" x2="15.2748" y2="-12.2541" gradientTransform="matrix(1 0 0 -1 0 48)">
			<stop  offset="0" style="stop-color:#E4F3F3"/>
			<stop  offset="1" style="stop-color:#00F95C"/>
		</linearGradient>
		<path style="fill:url(#SVGID_00000036962275953497757050000004518362556134867623_);" d="M34.6,46.9c-1.8,0-3.5-0.6-4.7-1.8
			s-1.8-2.8-1.8-4.6s0.6-3.4,1.8-4.6c1.2-1.2,2.8-1.8,4.6-1.8s3.4,0.6,4.6,1.8s1.9,2.8,1.9,4.6s-0.8,3.3-2,4.5
			C37.8,46.2,36.4,46.9,34.6,46.9z M34.5,38.1c-1.4,0-2.5,1-2.5,2.4s1.1,2.6,2.5,2.6s2.5-1.2,2.5-2.6S35.9,38.1,34.5,38.1z"/>
	</g>
	<g>
		
			<linearGradient id="SVGID_00000008855675566732279440000003070289434023218067_" gradientUnits="userSpaceOnUse" x1="55.9071" y1="39.0877" x2="9.3047" y2="-8.9269" gradientTransform="matrix(1 0 0 -1 0 48)">
			<stop  offset="0" style="stop-color:#E4F3F3"/>
			<stop  offset="1" style="stop-color:#00F95C"/>
		</linearGradient>
		<path style="fill:url(#SVGID_00000008855675566732279440000003070289434023218067_);" d="M19.2,38.6c1.7-0.3,2.9,0.1,5.7,0.1
			s3.3-0.6,5.6,0c1.9,0.5,2.1,4.5,0.1,4c-1.7-0.5-4.1-0.5-5.8,0.1c-2,0.7-1.6-1.2-5.6-0.1C17.1,43.3,17.2,39,19.2,38.6z"/>
	</g>
	<g>
		
			<linearGradient id="SVGID_00000014609782051570690810000016331691395073490102_" gradientUnits="userSpaceOnUse" x1="46.8456" y1="43.1705" x2="3.8662" y2="-1.1114" gradientTransform="matrix(1 0 0 -1 0 48)">
			<stop  offset="0" style="stop-color:#E4F3F3"/>
			<stop  offset="1" style="stop-color:#00F95C"/>
		</linearGradient>
		<path style="fill:url(#SVGID_00000014609782051570690810000016331691395073490102_);" d="M43.6,42.6L43.6,42.6
			c-1.6,0-2.4,0.4-3.1-0.1c-1.7-1-1.8-1.1-0.7-2.7c0.8-1.1,3.1,0.2,3.6-1c1.3-3.1,0.2-3.8,0.2-7.1c0-0.2,0.1,0.1-0.2-0.1
			c-2.1-1.4-3.1-0.9-5.3-2s-2.4-0.6-3.6-2.8c-1.5-2.6-1-2.7-1.6-5.5c-0.6-3,1.8-6.4-1.2-6.1c-3.2,0.3-3.3,0.5-6.5,0.5
			c-3.2,0-3.2-0.6-6.3-0.6c-3.2,0-3.2,0.3-6.4,0.3s-3.8-1.9-6.2,0.2c-2.1,2,0,2.7,0,5.6c0,2.9-0.2,2.9-0.2,5.8
			c0,2.9,0.2,2.9,0.2,5.8c0,2.9-2,3.4-0.6,6C6.6,40,8,37.4,9,38.7c1.2,1.6,2,2.6,0.7,4c-1.2,1.3-2.1,0-3.9,0c-1.9,0-3-1.8-3-3.7
			c0-3.5,0-3.5,0-6.9c0-3.5-0.7-4.1,0-7.5c0.6-3.4-0.5-3-0.5-6.4s-1-2.1,1.4-4.6c2.2-2.4,1.5-1,4.8-1c3.3,0,3.7,1,7,1
			c3.3,0,3.3,0.6,6.6,0.6c3.3,0,3-0.7,6.3-0.7s4.1-0.5,6.4-0.6c3.3-0.1,1.1,1.7,1.7,5S34.8,22.4,37,25c2.6,3.1,6.9,3.1,8.1,3.7
			c0.6,0.3,2.2,1.8,1.8,3.5c-0.8,3.5-0.6,3.6-0.6,7.2c0,0.9,0.1,1.6-0.3,2.1C45.3,42.5,44.5,42.6,43.6,42.6z"/>
	</g>
	<g>
		
			<linearGradient id="SVGID_00000139995945922227771290000012556094970308876479_" gradientUnits="userSpaceOnUse" x1="49.8544" y1="42.6111" x2="4.9945" y2="-3.6081" gradientTransform="matrix(1 0 0 -1 0 48)">
			<stop  offset="0" style="stop-color:#E4F3F3"/>
			<stop  offset="1" style="stop-color:#00F95C"/>
		</linearGradient>
		<path style="fill:url(#SVGID_00000139995945922227771290000012556094970308876479_);" d="M37.6,28.6c-4.1,0.3-4.6,0-9.1,0
			c-1.6,0-2.8-1.3-2.9-2.9c0-2.6-0.1-2.6-0.1-5.3c0-0.8,0.4-1.5,1-2.1s1.3-0.9,2.1-0.9c2.8,0,3.5-0.3,5.6,0c2,0.3,1,1.1,0.1,2.9
			c-0.5,1-2.9-0.3-4.7,1c-1.3,1-1.5,2.8,0,3.4c3.8,1.5,5.9,0.2,7.6,1.1C38.5,26.6,39.6,28.5,37.6,28.6z"/>
	</g>
	<g>
		
			<linearGradient id="SVGID_00000161604472521912229390000015600970384983244991_" gradientUnits="userSpaceOnUse" x1="40.4562" y1="50.2979" x2="-2.9323" y2="5.5946" gradientTransform="matrix(1 0 0 -1 0 48)">
			<stop  offset="0" style="stop-color:#E4F3F3"/>
			<stop  offset="1" style="stop-color:#00F95C"/>
		</linearGradient>
		<path style="fill:url(#SVGID_00000161604472521912229390000015600970384983244991_);" d="M20.7,28.9c-2.6-0.5-2.3-0.2-4.9-0.2
			c-2.6,0-2.7-0.4-5.2,0c-1.2,0.2-2.8-1.4-2.8-3c0-2.7-0.2-2.7-0.2-5.4c0-1.6,1.4-3,3-3c2.6,0,2.6,0.2,5.2,0.2s2.6-0.1,5.2-0.1
			c1.6,0,2.9,1.3,2.9,2.9c0,2.7,0,2.7,0,5.4C24,27.5,22.4,29.2,20.7,28.9z M11.7,24.7c4.2,0,4.5,1.4,8.4-0.1c1.5-0.6,1.5-2.6,0-3.2
			c-3.9-1.5-4.5-1.8-8.4-0.2C10.1,21.8,11.7,24.7,11.7,24.7z"/>
	</g>
	<g>
		
			<linearGradient id="SVGID_00000023253600655620534120000013328206925655846041_" gradientUnits="userSpaceOnUse" x1="35.7911" y1="55.3245" x2="-8.2125" y2="9.9874" gradientTransform="matrix(1 0 0 -1 0 48)">
			<stop  offset="0" style="stop-color:#E4F3F3"/>
			<stop  offset="1" style="stop-color:#00F95C"/>
		</linearGradient>
		<path style="fill:url(#SVGID_00000023253600655620534120000013328206925655846041_);" d="M38,15.1c-3.5,0-3.5,0.4-7,0.4
			c-3.5,0-3.5,0.1-7,0.1c-3.5,0-3.5-0.5-7-0.5c-3.5,0-3.5-0.2-7-0.2s-3.5,0.7-7,0.7c-1.6,0-3-1.7-3-3.3c0-3.4,0.2-3.4,0.2-6.8
			c0-1.3,0.2-2.6,1.3-3.4s2.7-0.5,4-0.1c2,0.8,4.8,1.2,7.7,1.6c2.5,0.3,5.1,0.3,7.8-0.3c3.9-0.8,6.6-1.6,8.7-2.3
			c1.5-0.5,3-0.5,4.3-0.7c1.8-0.3,3.8-0.2,5.2,1c1.3,1.1,2.1,2.8,2.1,4.4c0,3.3-0.3,3.3-0.3,6.7C40.9,13.9,39.7,15.1,38,15.1z
			 M4,12.4l0.2-0.1C4.2,12.4,4,12.4,4,12.4z M3.7,11.8c0.8,1,3.6-0.8,6.9-0.8c3.3,0,3.1,1,6.6,0.8c3.3-0.3,3.7,0.5,7,0.5
			c3.3,0,3-0.2,6.3-0.2s3.6,0.9,6.2-1.1c1.9-1.5,0.5-2.5,0.3-5.3C37,4.9,36.3,5,36.1,4.8c-0.4-0.4-0.8-0.5-1.4-0.4
			c-1.1,0.2-2.4,0-3.9,0.4c-2.2,0.7-4.9,1.8-9,2.7c-2,0.4-4,0.7-6,0.6c-2.1-0.1-4.1-0.3-6-0.7C7.7,7,5.5,5.3,3.8,4.8
			C3.7,4.7,3.5,5,3.5,5.1C1.9,7.8,2,9.6,3.7,11.8z"/>
	</g>
</g>
</svg>
